<?xml version="1.0"?>
<svg xmlns="http://www.w3.org/2000/svg" role="img" aria-labelledby="kjr020-eyes-title" viewBox="50 200 460 300">
  <title id="kjr020-eyes-title">KJR020 eyes</title>
  <path data-part="eye" fill="#fafafa" stroke="#71717a" stroke-width="10" stroke-linejoin="round" d="m189 425.5.5-.5h6l.5-.5.5-.5h3l.5-.5.5-.5h3l.5-.5.5-.5h2l.5-.5.5-.5h2l.5-.5.5-.5h1l.5-.5.5-.5h2l.5-.5.5-.5h1l.5-.5.5-.5h1l.5-.5.5-.5h1l.5-.5.5-.5h1l.5-.5.5-.5.5-.5.5-.5h1l.5-.5.5-.5h1l.5-.5.5-.5.5-.5.5-.5.5-.5.5-.5h1l.5-.5.5-.5.5-.5.5-.5h1l.5-.5.5-.5.5-.5.5-.5.5-.5.5-.5.5-.5.5-.5.5-.5.5-.5.5-.5.5-.5.5-.5.5-.5.5-.5.5-.5.5-.5.5-.5.5-.5.5-.5.5-.5.5-.5.5-.5.5-.5.5-.5v-1l.5-.5.5-.5.5-.5.5-.5.5-.5.5-.5.5-.5.5-.5v-1l.5-.5.5-.5.5-.5.5-.5v-1l.5-.5.5-.5.5-.5.5-.5v-1l.5-.5.5-.5v-1l.5-.5.5-.5v-1l.5-.5.5-.5.5-.5.5-.5v-1l.5-.5.5-.5v-2l.5-.5.5-.5v-1l.5-.5.5-.5v-2l.5-.5.5-.5v-2l.5-.5.5-.5v-2l.5-.5.5-.5v-2l.5-.5.5-.5v-4l.5-.5.5-.5v-6l.5-.5.5-.5v-18l-.5-.5-.5-.5v-6l-.5-.5-.5-.5v-3l-.5-.5-.5-.5v-3l-.5-.5-.5-.5v-2l-.5-.5-.5-.5v-2l-.5-.5-.5-.5v-1l-.5-.5-.5-.5v-2l-.5-.5-.5-.5v-1l-.5-.5-.5-.5v-1l-.5-.5-.5-.5v-1l-.5-.5-.5-.5v-1l-.5-.5-.5-.5-.5-.5-.5-.5v-1l-.5-.5-.5-.5v-1l-.5-.5-.5-.5-.5-.5-.5-.5-.5-.5-.5-.5v-1l-.5-.5-.5-.5-.5-.5-.5-.5-.5-.5-.5-.5v-1l-.5-.5-.5-.5-.5-.5-.5-.5-.5-.5-.5-.5-.5-.5-.5-.5-.5-.5-.5-.5-.5-.5-.5-.5-.5-.5-.5-.5-.5-.5-.5-.5-.5-.5-.5-.5-.5-.5-.5-.5-.5-.5-.5-.5-.5-.5-.5-.5-.5-.5h-1l-.5-.5-.5-.5-.5-.5-.5-.5h-1l-.5-.5-.5-.5-.5-.5-.5-.5-.5-.5-.5-.5h-1l-.5-.5-.5-.5-.5-.5-.5-.5h-1l-.5-.5-.5-.5h-1l-.5-.5-.5-.5h-1l-.5-.5-.5-.5h-1l-.5-.5-.5-.5h-1l-.5-.5-.5-.5h-2l-.5-.5-.5-.5h-2l-.5-.5-.5-.5h-2l-.5-.5-.5-.5h-2l-.5-.5-.5-.5h-4l-.5-.5-.5-.5h-4l-.5-.5-.5-.5h-8l-.5-.5-.5-.5h-7l-.5.5-.5.5h-8l-.5.5-.5.5h-4l-.5.5-.5.5h-3l-.5.5-.5.5h-3l-.5.5-.5.5h-2l-.5.5-.5.5h-1l-.5.5-.5.5h-2l-.5.5-.5.5h-1l-.5.5-.5.5h-1l-.5.5-.5.5h-1l-.5.5-.5.5h-1l-.5.5-.5.5h-1l-.5.5-.5.5-.5.5-.5.5h-1l-.5.5-.5.5-.5.5-.5.5h-1l-.5.5-.5.5-.5.5-.5.5h-1l-.5.5-.5.5-.5.5-.5.5-.5.5-.5.5h-1l-.5.5-.5.5-.5.5-.5.5-.5.5-.5.5-.5.5-.5.5-.5.5-.5.5-.5.5-.5.5-.5.5-.5.5-.5.5-.5.5-.5.5-.5.5-.5.5-.5.5-.5.5-.5.5-.5.5v1l-.5.5-.5.5-.5.5-.5.5-.5.5-.5.5-.5.5-.5.5v1l-.5.5-.5.5-.5.5-.5.5v1l-.5.5-.5.5-.5.5-.5.5v1l-.5.5-.5.5-.5.5-.5.5v1l-.5.5-.5.5v1l-.5.5-.5.5v1l-.5.5-.5.5v1l-.5.5-.5.5v1l-.5.5-.5.5v2l-.5.5-.5.5v1l-.5.5-.5.5v2l-.5.5-.5.5v2l-.5.5-.5.5v4l-.5.5-.5.5v4l-.5.5-.5.5v22l.5.5.5.5v5l.5.5.5.5v3l.5.5.5.5v3l.5.5.5.5v2l.5.5.5.5v2l.5.5.5.5v1l.5.5.5.5v2l.5.5.5.5v1l.5.5.5.5v1l.5.5.5.5v1l.5.5.5.5.5.5.5.5v1l.5.5.5.5v1l.5.5.5.5.5.5.5.5v1l.5.5.5.5.5.5.5.5v1l.5.5.5.5.5.5.5.5.5.5.5.5.5.5.5.5v1l.5.5.5.5.5.5.5.5.5.5.5.5.5.5.5.5.5.5.5.5.5.5.5.5.5.5.5.5.5.5.5.5.5.5.5.5.5.5h1l.5.5.5.5.5.5.5.5.5.5.5.5.5.5.5.5h1l.5.5.5.5.5.5.5.5h1l.5.5.5.5.5.5.5.5h1l.5.5.5.5.5.5.5.5h1l.5.5.5.5h1l.5.5.5.5h1l.5.5.5.5h1l.5.5.5.5h2l.5.5.5.5h1l.5.5.5.5h2l.5.5.5.5h3l.5.5.5.5h2l.5.5.5.5h4l.5.5.5.5h6l.5.5.5.5h17zM402 455.5l.5-.5h8l.5-.5.5-.5h4l.5-.5.5-.5h3l.5-.5.5-.5h2l.5-.5.5-.5h2l.5-.5.5-.5h1l.5-.5.5-.5h2l.5-.5.5-.5h1l.5-.5.5-.5h1l.5-.5.5-.5h1l.5-.5.5-.5h1l.5-.5.5-.5h1l.5-.5.5-.5.5-.5.5-.5h1l.5-.5.5-.5.5-.5.5-.5h1l.5-.5.5-.5.5-.5.5-.5h1l.5-.5.5-.5.5-.5.5-.5.5-.5.5-.5.5-.5.5-.5.5-.5.5-.5h1l.5-.5.5-.5.5-.5.5-.5.5-.5.5-.5.5-.5.5-.5.5-.5.5-.5.5-.5.5-.5.5-.5.5-.5.5-.5.5-.5.5-.5v-1l.5-.5.5-.5.5-.5.5-.5.5-.5.5-.5.5-.5.5-.5v-1l.5-.5.5-.5.5-.5.5-.5.5-.5.5-.5v-1l.5-.5.5-.5v-1l.5-.5.5-.5.5-.5.5-.5v-1l.5-.5.5-.5v-1l.5-.5.5-.5v-1l.5-.5.5-.5v-1l.5-.5.5-.5v-1l.5-.5.5-.5v-1l.5-.5.5-.5v-2l.5-.5.5-.5v-2l.5-.5.5-.5v-2l.5-.5.5-.5v-2l.5-.5.5-.5v-5l.5-.5.5-.5v-5l.5-.5.5-.5v-21l-.5-.5-.5-.5v-6l-.5-.5-.5-.5v-3l-.5-.5-.5-.5v-3l-.5-.5-.5-.5v-2l-.5-.5-.5-.5v-1l-.5-.5-.5-.5v-2l-.5-.5-.5-.5v-1l-.5-.5-.5-.5v-1l-.5-.5-.5-.5v-1l-.5-.5-.5-.5v-1l-.5-.5-.5-.5v-1l-.5-.5-.5-.5v-1l-.5-.5-.5-.5-.5-.5-.5-.5v-1l-.5-.5-.5-.5-.5-.5-.5-.5v-1l-.5-.5-.5-.5-.5-.5-.5-.5v-1l-.5-.5-.5-.5-.5-.5-.5-.5-.5-.5-.5-.5-.5-.5-.5-.5-.5-.5-.5-.5-.5-.5-.5-.5v-1l-.5-.5-.5-.5-.5-.5-.5-.5-.5-.5-.5-.5-.5-.5h-1l-.5-.5-.5-.5-.5-.5-.5-.5-.5-.5-.5-.5-.5-.5-.5-.5-.5-.5-.5-.5-.5-.5-.5-.5h-1l-.5-.5-.5-.5-.5-.5-.5-.5-.5-.5-.5-.5h-1l-.5-.5-.5-.5-.5-.5-.5-.5h-1l-.5-.5-.5-.5h-1l-.5-.5-.5-.5h-1l-.5-.5-.5-.5h-1l-.5-.5-.5-.5h-1l-.5-.5-.5-.5h-1l-.5-.5-.5-.5h-1l-.5-.5-.5-.5h-2l-.5-.5-.5-.5h-2l-.5-.5-.5-.5h-2l-.5-.5-.5-.5h-2l-.5-.5-.5-.5h-4l-.5-.5-.5-.5h-5l-.5-.5-.5-.5h-25l-.5.5-.5.5h-4l-.5.5-.5.5h-3l-.5.5-.5.5h-3l-.5.5-.5.5h-2l-.5.5-.5.5h-2l-.5.5-.5.5h-1l-.5.5-.5.5h-1l-.5.5-.5.5h-2l-.5.5-.5.5h-1l-.5.5-.5.5h-1l-.5.5-.5.5-.5.5-.5.5h-1l-.5.5-.5.5h-1l-.5.5-.5.5-.5.5-.5.5h-1l-.5.5-.5.5-.5.5-.5.5h-1l-.5.5-.5.5-.5.5-.5.5-.5.5-.5.5-.5.5-.5.5h-1l-.5.5-.5.5-.5.5-.5.5-.5.5-.5.5-.5.5-.5.5-.5.5-.5.5-.5.5-.5.5-.5.5-.5.5-.5.5-.5.5-.5.5-.5.5-.5.5-.5.5-.5.5-.5.5-.5.5-.5.5-.5.5v1l-.5.5-.5.5-.5.5-.5.5-.5.5-.5.5v1l-.5.5-.5.5-.5.5-.5.5v1l-.5.5-.5.5-.5.5-.5.5v1l-.5.5-.5.5v1l-.5.5-.5.5-.5.5-.5.5v1l-.5.5-.5.5v1l-.5.5-.5.5v1l-.5.5-.5.5v1l-.5.5-.5.5v2l-.5.5-.5.5v2l-.5.5-.5.5v2l-.5.5-.5.5v2l-.5.5-.5.5v4l-.5.5-.5.5v5l-.5.5-.5.5v21l.5.5.5.5v6l.5.5.5.5v3l.5.5.5.5v3l.5.5.5.5v2l.5.5.5.5v2l.5.5.5.5v1l.5.5.5.5v2l.5.5.5.5v1l.5.5.5.5v1l.5.5.5.5v1l.5.5.5.5.5.5.5.5v1l.5.5.5.5v1l.5.5.5.5.5.5.5.5v1l.5.5.5.5.5.5.5.5v1l.5.5.5.5.5.5.5.5.5.5.5.5v1l.5.5.5.5.5.5.5.5.5.5.5.5.5.5.5.5.5.5.5.5.5.5.5.5.5.5.5.5.5.5.5.5.5.5.5.5.5.5.5.5.5.5.5.5.5.5.5.5.5.5h1l.5.5.5.5.5.5.5.5.5.5.5.5.5.5.5.5h1l.5.5.5.5.5.5.5.5h1l.5.5.5.5.5.5.5.5h1l.5.5.5.5h1l.5.5.5.5h1l.5.5.5.5h1l.5.5.5.5h1l.5.5.5.5h1l.5.5.5.5h1l.5.5.5.5h2l.5.5.5.5h2l.5.5.5.5h2l.5.5.5.5h4l.5.5.5.5h4l.5.5.5.5h7l.5.5.5.5h13z"/>
  <path data-part="pupil" fill="#18181b" d="M177.5 405h-9l-.5-.5-.5-.5h-4l-.5-.5-.5-.5h-2l-.5-.5-.5-.5h-2l-.5-.5-.5-.5h-1l-.5-.5-.5-.5h-1l-.5-.5-.5-.5-.5-.5-.5-.5h-1l-.5-.5-.5-.5-.5-.5-.5-.5-.5-.5-.5-.5h-1l-.5-.5-.5-.5-.5-.5-.5-.5-.5-.5-.5-.5-.5-.5-.5-.5-.5-.5v-1l-.5-.5-.5-.5-.5-.5-.5-.5-.5-.5-.5-.5-.5-.5-.5-.5v-1l-.5-.5-.5-.5-.5-.5-.5-.5v-1l-.5-.5-.5-.5v-1l-.5-.5-.5-.5v-1l-.5-.5-.5-.5v-1l-.5-.5-.5-.5v-1l-.5-.5-.5-.5v-2l-.5-.5-.5-.5v-2l-.5-.5-.5-.5v-4l-.5-.5-.5-.5v-7l-.5-.5-.5-.5v-8l.5-.5.5-.5v-6l.5-.5.5-.5v-4l.5-.5.5-.5v-2l-.5-.5h-3l-.5-.5-.5-.5h-5l-.5-.5-.5-.5h-5l-.5-.5-.5-.5h-4l-.5-.5-.5-.5h-4l-.5-.5-.5-.5h-1l-.5-.5-.5-.5h-1l-.5-.5v-1l-.5-.5-.5-.5v-1l-.5-.5-.5-.5v-1l.5-.5.5-.5v-2l.5-.5.5-.5.5-.5h1l.5-.5.5-.5h6l.5.5.5.5h5l.5.5.5.5h4l.5.5.5.5h4l.5.5.5.5h5l.5.5.5.5h4l.5.5.5.5h4l.5.5.5.5h4l.5.5.5.5h4l.5.5.5.5h3l.5.5.5.5h5l.5.5.5.5h4l.5.5.5.5h5l.5.5.5.5h4l.5.5.5.5h4l.5.5.5.5h5l.5.5.5.5h5l.5.5.5.5h4l.5.5.5.5h4l.5.5.5.5h5l.5.5.5.5h4l.5.5.5.5h3l.5.5.5.5h5l.5.5.5.5h4l.5.5.5.5h4l.5.5.5.5h4l.5.5.5.5h4l.5.5.5.5h5l.5.5.5.5h4l.5.5.5.5h1l.5.5.5.5h1l.5.5v1l.5.5.5.5v4l-.5.5-.5.5v1l-.5.5h-1l-.5.5-.5.5h-1l-.5.5-.5.5h-3l-.5-.5-.5-.5h-5l-.5-.5-.5-.5h-4l-.5-.5-.5-.5h-5l-.5-.5-.5-.5h-5l-.5-.5-.5-.5h-4l-.5.5-.5.5-.5.5v4l-.5.5-.5.5v4l-.5.5-.5.5v2l-.5.5-.5.5v2l-.5.5-.5.5v2l-.5.5-.5.5v1l-.5.5-.5.5v2l-.5.5-.5.5v1l-.5.5-.5.5v1l-.5.5-.5.5-.5.5-.5.5v1l-.5.5-.5.5-.5.5-.5.5v1l-.5.5-.5.5-.5.5-.5.5-.5.5-.5.5v1l-.5.5-.5.5-.5.5-.5.5-.5.5-.5.5-.5.5-.5.5-.5.5-.5.5-.5.5-.5.5-.5.5h-1l-.5.5-.5.5-.5.5-.5.5-.5.5-.5.5h-1l-.5.5-.5.5-.5.5-.5.5h-1l-.5.5-.5.5h-1l-.5.5-.5.5h-1l-.5.5-.5.5h-1l-.5.5-.5.5h-3l-.5.5-.5.5h-4l-.5.5zM397.5 436h-3l-.5-.5-.5-.5h-7l-.5-.5-.5-.5h-3l-.5-.5-.5-.5h-2l-.5-.5-.5-.5h-1l-.5-.5-.5-.5h-1l-.5-.5-.5-.5h-1l-.5-.5-.5-.5-.5-.5-.5-.5h-1l-.5-.5-.5-.5-.5-.5-.5-.5h-1l-.5-.5-.5-.5-.5-.5-.5-.5-.5-.5-.5-.5-.5-.5-.5-.5-.5-.5-.5-.5-.5-.5-.5-.5-.5-.5-.5-.5-.5-.5v-1l-.5-.5-.5-.5-.5-.5-.5-.5-.5-.5-.5-.5v-1l-.5-.5-.5-.5v-1l-.5-.5-.5-.5-.5-.5-.5-.5v-1l-.5-.5-.5-.5v-1l-.5-.5-.5-.5v-1l-.5-.5-.5-.5v-1l-.5-.5-.5-.5v-2l-.5-.5-.5-.5v-2l-.5-.5-.5-.5v-3l-.5-.5-.5-.5v-4l-.5-.5-.5-.5v-17l-.5-.5-.5-.5-.5-.5h-29l-.5-.5-.5-.5h-2l-.5-.5-.5-.5h-1l-.5-.5-.5-.5-.5-.5v-2l-.5-.5-.5-.5.5-.5.5-.5v-2l.5-.5.5-.5.5-.5.5-.5.5-.5.5-.5.5-.5h38l.5.5.5.5h27l.5.5.5.5h40l.5.5.5.5h53l.5.5.5.5h2l.5.5.5.5.5.5.5.5.5.5v1l.5.5.5.5v2l-.5.5-.5.5-.5.5-.5.5-.5.5-.5.5-.5.5-.5.5-.5.5h-10l-.5.5-.5.5h-20l-.5.5v9l-.5.5-.5.5v6l-.5.5-.5.5v4l-.5.5-.5.5v2l-.5.5-.5.5v2l-.5.5-.5.5v2l-.5.5-.5.5v1l-.5.5-.5.5v1l-.5.5-.5.5v1l-.5.5-.5.5v1l-.5.5-.5.5-.5.5-.5.5v1l-.5.5-.5.5v1l-.5.5-.5.5-.5.5-.5.5-.5.5-.5.5v1l-.5.5-.5.5-.5.5-.5.5-.5.5-.5.5-.5.5-.5.5-.5.5-.5.5-.5.5-.5.5-.5.5-.5.5-.5.5h-1l-.5.5-.5.5-.5.5-.5.5-.5.5-.5.5h-1l-.5.5-.5.5h-1l-.5.5-.5.5h-1l-.5.5-.5.5h-1l-.5.5-.5.5h-2l-.5.5-.5.5h-2l-.5.5-.5.5h-5l-.5.5z"/>
</svg>
