<svg xmlns="http://www.w3.org/2000/svg" viewBox="0 0 768 768">
  <g transform="matrix(0.798337,0,0,0.898246,-445.471933,-532.659649)">
    <g transform="matrix(1.252604,0,0,1.113281,-244.919271,-91.667969)">
      <path fill="#000" d="M1021.6,776.6C1020,777.5 1015.9,780.6 1012.6,783.4C1000.7,793.4 997.5,794.9 982.3,797.6C915.8,809.2 862.9,843.1 833.2,893C823,910.1 814.8,932 811.3,951.5C808.9,964.7 808.9,995.6 811.3,1007.5C821.2,1056.2 853,1095.9 901.7,1120.1L911.8,1125.2L901.2,1137.8C888.8,1153.6 850.392,1205.111 849.2,1206C844.253,1209.69 848.037,1242.468 853.9,1245.7C854.5,1246.9 856.506,1248.096 857.4,1249.5C859.273,1252.44 892.481,1262.306 901.5,1260C905.405,1259.002 921.961,1250.703 924.3,1244.1C926.9,1238.2 968.8,1144.8 969.4,1144.3C969.6,1144.1 977.2,1144.8 986.1,1145.9C1010.1,1149 1036.3,1150.1 1054.3,1148.8C1068.3,1147.9 1069.5,1147.9 1070.7,1149.6C1071.096,1150.166 1078.149,1173.256 1093.207,1201.489C1104.761,1223.153 1123.497,1249.079 1132.6,1262.7C1134.003,1264.519 1163.71,1273.997 1181.418,1265.194C1197.79,1257.054 1202.308,1230.673 1202.5,1230C1202.885,1228.185 1184.366,1199.595 1164.923,1174.067C1149.017,1153.184 1131.5,1134.35 1131.5,1133.9C1131.5,1133.4 1135,1131.4 1139.3,1129.6C1159.9,1120.6 1177.5,1108.6 1193.5,1092.5C1210.7,1075.4 1220.1,1061.2 1228.8,1039.3C1235.4,1022.5 1238.8,1007.4 1240.2,987.7C1242.8,953.4 1236.7,926 1220.6,898.6C1207.3,876 1183.7,852.4 1156.9,835C1135.9,821.3 1100.7,806.5 1077.5,801.5C1059.1,797.5 1053.9,795 1041.5,784.1C1038.2,781.2 1034.6,778.2 1033.5,777.5C1030.1,775.2 1024.8,774.9 1021.6,776.6M934.1,860.5C938,861.3 945.1,863.8 949.8,866C957,869.4 959.7,871.4 967.4,879.3C977.7,889.6 981.7,896.3 985,908.3C995.4,946 970.3,987.1 931.3,996.5C920.1,999.2 904.9,998.3 894.5,994.2C874.9,986.5 861,971.8 854.3,951.5C851.9,944.3 851.6,942 851.6,929C851.6,915.6 851.8,913.9 854.4,907.2C858.1,897.2 863,889.2 869.7,881.9C880.8,869.9 893.1,863.1 909.5,859.6C914.3,858.7 927.4,859.1 934.1,860.5M1122.2,886.1C1149.1,890.3 1170.6,908.3 1179.7,934.5C1182.2,941.7 1182.5,943.8 1182.5,956C1182.5,967.4 1182.1,970.7 1180.2,977C1176.1,990 1171.5,997.6 1161.5,1007.5C1147.9,1021.1 1135.1,1026.7 1115.4,1027.7C1101.4,1028.4 1092.3,1026.5 1080.2,1020.5C1064.9,1012.8 1053.7,1000.4 1047,983.7C1042.7,972.9 1041.7,966.4 1042.3,952.5C1042.7,942.5 1043.3,939.1 1045.7,932.3C1049.6,921.4 1054.2,914.1 1062,906.1C1077.8,889.8 1099.6,882.6 1122.2,886.1"/>
    </g>
    <g transform="matrix(1.252604,0,0,1.113281,-140.953125,-67.175781)">
      <g transform="translate(-83,-22)">
        <path fill="#000" d="M857.3,908.2C855.8,910.1 855.1,913.6 856,915C856.8,916.3 870.8,920 875,920C879.5,920 880.3,921.2 879,926.1C878.3,928.4 877.8,934.2 877.9,938.9C877.9,953.3 882.7,965 891.7,973C898.3,978.8 902.1,980.3 911,980.4C920.8,980.4 927.9,977.1 936.4,968.6C943.4,961.6 947.6,953.9 950,943.7C951.7,936.8 951.8,936.5 954.6,936.6C956.2,936.6 962.1,937.7 967.7,939C979,941.6 981,941.2 981,936C981,931.2 989.8,933.4 881.7,911.4C869.7,909 859.5,907 859,907C858.6,907 857.8,907.6 857.3,908.2"/>
      </g>
      <g transform="translate(-83,-22)">
        <path fill="#000" d="M1046,946.9C1044.5,949.9 1044.8,952.8 1046.8,953.9C1047.8,954.4 1054.4,955.2 1061.3,955.6L1074,956.3L1074,963.6C1074,977.1 1078,988.8 1085.8,998.7C1090.6,1004.7 1096,1008.1 1104.4,1010.5C1114.8,1013.5 1126.3,1009.9 1134.9,1001.1C1142.8,993 1149,978.6 1149,968.4C1149,960.1 1148.5,960.4 1163.2,960.5C1174.4,960.5 1176.4,960.3 1177.3,958.8C1178.1,957.6 1178,956.5 1177.1,954.6C1175.4,951.5 1175.1,951.5 1144.5,950C1131.9,949.4 1107.6,948.1 1090.5,947C1050.1,944.5 1047.4,944.5 1046,946.9"/>
      </g>
    </g>
  </g>
</svg>
