<svg xmlns="http://www.w3.org/2000/svg" version="1.0" viewBox="0 0 2048 2048">
  <path d="M1021.6 776.6c-1.6.9-5.7 4-9 6.8-11.9 10-15.1 11.5-30.3 14.2-66.5 11.6-119.4 45.5-149.1 95.4-10.2 17.1-18.4 39-21.9 58.5-2.4 13.2-2.4 44.1 0 56 9.9 48.7 41.7 88.4 90.4 112.6l10.1 5.1-22.6 28.6c-12.4 15.8-26.5 33.6-31.4 39.7-4.8 6-9.1 12.1-9.6 13.5-.9 2.6 3.8 34.4 5.7 38.7.6 1.2 2.1 2.9 3.5 3.8 2.9 2 44.5 12.5 49.1 12.5 3.9 0 7.1-2.9 9.8-8.9 2.6-5.9 52.5-108.3 53.1-108.8.2-.2 7.8.5 16.7 1.6 24 3.1 50.2 4.2 68.2 2.9 14-.9 15.2-.9 16.4.8.7 1 6.8 11.9 13.5 24.3 40 74.3 46.3 85.9 48.4 88.8 2.7 3.5 5.6 4.4 28.7 8.4 17.7 3.1 16.4 4 29.9-19.7 5.9-10.4 10.9-20 11.3-21.4.7-3.3-.3-4.9-17.3-26.3-26.8-33.8-53.7-68.8-53.7-69.8 0-.5 3.5-2.5 7.8-4.3 20.6-9 38.2-21 54.2-37.1 17.2-17.1 26.6-31.3 35.3-53.2 6.6-16.8 10-31.9 11.4-51.6 2.6-34.3-3.5-61.7-19.6-89.1-13.3-22.6-36.9-46.2-63.7-63.6-21-13.7-56.2-28.5-79.4-33.5-18.4-4-23.6-6.5-36-17.4-3.3-2.9-6.9-5.9-8-6.6-3.4-2.3-8.7-2.6-11.9-.9m-87.5 83.9c3.9.8 11 3.3 15.7 5.5 7.2 3.4 9.9 5.4 17.6 13.3 10.3 10.3 14.3 17 17.6 29 10.4 37.7-14.7 78.8-53.7 88.2-11.2 2.7-26.4 1.8-36.8-2.3-19.6-7.7-33.5-22.4-40.2-42.7-2.4-7.2-2.7-9.5-2.7-22.5 0-13.4.2-15.1 2.8-21.8 3.7-10 8.6-18 15.3-25.3 11.1-12 23.4-18.8 39.8-22.3 4.8-.9 17.9-.5 24.6.9m188.1 25.6c26.9 4.2 48.4 22.2 57.5 48.4 2.5 7.2 2.8 9.3 2.8 21.5 0 11.4-.4 14.7-2.3 21-4.1 13-8.7 20.6-18.7 30.5-13.6 13.6-26.4 19.2-46.1 20.2-14 .7-23.1-1.2-35.2-7.2-15.3-7.7-26.5-20.1-33.2-36.8-4.3-10.8-5.3-17.3-4.7-31.2.4-10 1-13.4 3.4-20.2 3.9-10.9 8.5-18.2 16.3-26.2 15.8-16.3 37.6-23.5 60.2-20"/>
  <g stroke-linejoin="round" stroke-linecap="round">
    <path d="M857.3 908.2c-1.5 1.9-2.2 5.4-1.3 6.8.8 1.3 14.8 5 19 5 4.5 0 5.3 1.2 4 6.1-.7 2.3-1.2 8.1-1.1 12.8 0 14.4 4.8 26.1 13.8 34.1 6.6 5.8 10.4 7.3 19.3 7.4 9.8 0 16.9-3.3 25.4-11.8 7-7 11.2-14.7 13.6-24.9 1.7-6.9 1.8-7.2 4.6-7.1 1.6 0 7.5 1.1 13.1 2.4 11.3 2.6 13.3 2.2 13.3-3 0-4.8 8.8-2.6-99.3-24.6-12-2.4-22.2-4.4-22.7-4.4-.4 0-1.2.6-1.7 1.2"/>
    <path d="M1046 946.9c-1.5 3-1.2 5.9.8 7 1 .5 7.6 1.3 14.5 1.7l12.7.7v7.3c0 13.5 4 25.2 11.8 35.1 4.8 6 10.2 9.4 18.6 11.8 10.4 3 21.9-.6 30.5-9.4 7.9-8.1 14.1-22.5 14.1-32.7 0-8.3-.5-8 14.2-7.9 11.2 0 13.2-.2 14.1-1.7.8-1.2.7-2.3-.2-4.2-1.7-3.1-2-3.1-32.6-4.6-12.6-.6-36.9-1.9-54-3-40.4-2.5-43.1-2.5-44.5-.1"/>
  </g>
</svg>